# xmcd
#
# Track frame offsets:
#	150
#	18705
#	35142
#	50429
#	71053
#	86085
#	103841
#	123740
#	144054
#	157562
#	177918
#	191597
#
# Disc length: 2796 seconds
#
# Revision: 1
# Processed by: cddbd v1.5PL3 Copyright (c) Steve Scherf et al.
# Submitted via: audiograbber 1.80
#
DISCID=a40aea0c
DTITLE=Steve Doctor - Double Play
DYEAR=1900
DGENRE=
TTITLE0=Crystal tears
TTITLE1=Isla de flores
TTITLE2=Soul 2 soul
TTITLE3=Mr. White (4 peter)
TTITLE4=La bella
TTITLE5=4 Sade
TTITLE6=In the beginning
TTITLE7=Think twice
TTITLE8=The space between us
TTITLE9=Little girl
TTITLE10=Blue rose
TTITLE11=Wrap it up
EXTD=
EXTT0=
EXTT1=
EXTT2=
EXTT3=
EXTT4=
EXTT5=
EXTT6=
EXTT7=
EXTT8=
EXTT9=
EXTT10=
EXTT11=
PLAYORDER=
